<?xml version="1.0" standalone="no"?>
<!DOCTYPE svg PUBLIC "-//W3C//DTD SVG 1.1//EN" "http://www.w3.org/Graphics/SVG/1.1/DTD/svg11.dtd">
<svg xmlns="http://www.w3.org/2000/svg">
<metadata>Generated by Fontastic.me</metadata>
<defs>
<font id="nescafe-alegria" horiz-adv-x="512">
<font-face font-family="nescafe-alegria" units-per-em="512" ascent="480" descent="-32"/>
<missing-glyph horiz-adv-x="512" />

<glyph glyph-name="advertising" unicode="&#97;" d="M421 418c3 17 7 35 10 52 3 16-21 24-25 7 0-6-2-12-3-18-75 7-150 15-225 23 1 4 2 9 4 14 3 16-22 22-25 6-2-8-4-17-6-27 0-1-1-1-1-1-27-132-54-263-81-393 0-1 0-2 0-3-3-12-5-24-7-36-4-16 21-23 24-6 2 9 4 18 6 27 75-11 150-23 226-34-1-4-2-8-3-13-3-16 22-23 25-6 6 26 10 53 16 80 22-4 46-8 68-12 1-6 1-12 2-17 1-16 27-16 25 0-10 119-20 238-30 357z m-247 39c74-7 149-15 224-23-1-2-1-4-2-7-1-1-2-4-2-6-24-123-48-245-73-367-75 11-150 23-225 34 26 123 52 246 78 369z m187-343c14 72 28 142 42 213 7-74 12-149 19-223-21 3-41 7-61 10z"/>
<glyph glyph-name="building" unicode="&#98;" d="M499 57c-7 0-14 0-22 0l0 309c0 13-11 24-24 24l-73 0 0 59c0 17-14 33-33 33l-183 0c-18 0-33-15-33-33l0-59-73 0c-12 0-24-11-24-24l0-310c-7 0-15 0-22 0-17 0-17-26 0-26 50 0 101 0 151 0 5 0 9 0 14 0 57 0 114 0 171 0 30 0 60 0 90 0 20 0 40 0 60 0 18 0 18 27 1 27z m-47 307l0-307-70 0 0 307z m-391 0l70 0 0-307-70 0z m273-307c-56 0-113 0-170 0-4 0-6 3-6 6l0 386c0 4 3 6 6 6l185 0c4 0 6-3 6-6l0-386c0-4-3-6-6-6-5 0-10 0-15 0z m-134 305c38 0 75 0 113 0 17 0 17 26 0 26-38 0-75 0-113 0-17 0-17-26 0-26z m0-63c38 0 75 0 113 0 17 0 17 26 0 26-38 0-75 0-113 0-17 0-17-26 0-26z m0-62c38 0 75 0 113 0 17 0 17 25 0 25-38 0-75 0-113 0-17 0-17-25 0-25z m0-60c38 0 75 0 113 0 17 0 17 25 0 25-38 0-75 0-113 0-17 0-17-25 0-25z m0-63c38 0 75 0 113 0 17 0 17 25 0 25-38 0-75 0-113 0-17 1-17-25 0-25z"/>
<glyph glyph-name="checkbox" unicode="&#99;" d="M218 49c-4-6-12-6-17-1l-197 186c-6 5-6 14-1 19l63 66c4 5 12 6 18 1l108-102c6-5 14-5 18 0l210 244c5 6 13 7 18 2l69-59c6-5 7-13 2-19z"/>
<glyph glyph-name="click" unicode="&#100;" d="M99 310c-26 18-43 48-43 81 0 53 42 96 95 96 53 0 95-43 95-96 0-9-1-17-4-26 7-8 13-16 19-25 7 15 11 33 11 51 0 67-54 122-121 122-66 0-121-55-121-122 0-49 30-92 72-111-1 10-3 24-3 30z m374-124c0 0-1 1-1 2-2 4-3 7-5 10-4 12-9 26-14 39-2 4-3 9-6 13-11 28-21 49-37 58-18 10-36 8-49-5-2-1-3-3-4-5-11 10-28 13-43 7-6-3-12-8-16-14-11 9-27 11-40 5-5-2-10-6-13-10-12 27-42 93-43 94-9 18-32 26-51 18-19-8-28-30-21-50 0-1 25-56 45-100-5 0-10-2-15-3-19-9-28-31-22-50 0-1 0-1 37-81l11-24c0 0 0 0 0 0l-1 0 0-1c12-23 27-51 77-75 18-8 38-12 58-12 14 0 27 1 40 4 0 0 0 0 1 0 23 6 44 16 59 29 18 15 34 31 49 74 1 5 3 11 4 18 4 19 4 39 0 59z m-311 17c-3 7 0 16 8 19 7 4 15 1 19-5 6-15 10-24 11-25 4-9 8-18 13-28 12-26 23-52 23-52l22 10c0 1-12 27-23 52-12 26-23 52-23 53 0 1-1 1-1 2-19 43-57 127-57 129-3 7 0 16 8 19 7 3 16 0 20-7 0-2 40-88 55-122 0 0 0 0 0-1 1-1 29-65 29-65l22 10c-1 2-27 62-28 64-2 7 1 16 8 19 7 3 16 0 20-6 1-1 4-9 9-18 5-13 21-45 21-45l0 0c0 0 0 0 0-1l22 10c0 0-2 4-5 11-6 13-17 36-17 38-3 7 0 16 8 19 7 3 16 0 20-6 0-1 3-7 6-15 1-1 2-3 2-4 6-13 12-28 12-28l22 10c0 0-6 14-11 26 0 1 0 2-1 4l1 0c-3 3-1 12 3 16 2 1 2 3 4 4 2 0 3 0 5 0 2 0 5 0 9-3 3-1 4-3 7-5 3-8 21-49 34-77 4-11 8-21 10-30 4-18 1-47-2-57-13-36-26-49-41-62-30-25-88-39-131-18-42 20-54 44-65 64l0 0-1 0c-2 4-5 12-11 23-14 28-36 76-36 78z"/>
<glyph glyph-name="coffee-love" unicode="&#101;" d="M436 282c-10 6-27 9-48-1-14 32-37 53-67 61-35 8-72-4-102-32-33 27-74 35-109 21-36-13-58-45-62-86-8-91 93-148 146-179 8-4 16-8 20-12l7-4 6 4c4 3 9 5 15 8 30 17 85 48 120 90 12-6 25-9 36-9 12 0 24 3 35 9 23 13 38 40 38 66 0 20-10 52-35 64z m-206-197c-4-2-6-3-8-5-4 2-10 6-15 8-53 30-141 80-134 154 2 32 19 56 45 65 8 3 17 5 26 5 23 0 46-10 66-29l10-9 9 10c25 28 57 40 85 33 27-7 47-29 56-62 20-81-88-141-140-170z m191 89c-12-7-27-7-43-1 16 25 24 52 17 83 11 6 21 8 29 4 14-7 22-29 22-41 0-17-11-36-25-45z m-397-173c52 0 104 0 156 0 83 0 166 0 250 0 19 0 38 0 57 0 17 0 17 25 0 25-52 0-104 0-156 0-83 0-166 0-249 0-20 0-39 0-58 0-16 0-16-25 0-25z m107 486c22-15 7-37-2-56-11-25-9-48 14-65 14-9 27 13 13 23-19 14-1 38 6 55 11 26 5 49-18 66-14 8-26-13-13-23z m68 0c22-15 7-37-2-56-11-25-9-48 14-65 14-9 27 13 13 23-19 14-1 38 6 55 11 26 5 49-18 66-13 8-26-13-13-23z m66 0c21-15 6-37-3-56-11-25-8-48 15-65 13-9 26 13 13 23-20 14-1 38 6 55 10 26 5 49-18 66-14 8-27-13-13-23z"/>
<glyph glyph-name="cup" unicode="&#102;" d="M466 290c-10 4-25 8-45 0 0 2-1 4-1 7-3 16-16 26-32 26-98 0-263 0-343-1-15 0-29-11-31-26-12-61 3-120 42-168 41-50 103-79 166-79 56 0 111 27 150 75 9 10 17 22 23 34 12-5 23-8 35-8 12 0 24 3 34 8 23 13 38 40 38 67 0 20-11 52-36 65z m-113-149c-35-42-83-67-131-67-55 0-110 28-146 71-34 41-47 93-38 147 1 3 4 5 7 5 79 1 244 1 342 1 3 0 7-3 7-6 10-53-5-107-41-151z m98 41c-13-8-28-8-45-1 12 25 17 53 16 81 12 8 24 10 32 5 13-7 21-29 21-41 2-17-9-36-24-44z m-427-181c52 0 104 0 157 0 83 0 166 0 249 0 20 0 39 0 58 0 17 0 17 25 0 25-52 0-104 0-157 0-83 0-166 0-249 0-20 0-39 0-58 0-17 0-17-25 0-25z m113 485c21-15 6-36-3-56-11-25-8-48 15-64 13-10 26 12 13 22-20 14-1 38 6 55 10 27 5 49-18 66-14 9-27-13-13-23z m69 0c21-15 6-36-3-56-11-25-9-48 15-64 13-10 26 12 12 22-19 14 0 38 7 55 10 27 5 49-19 66-13 9-26-13-12-23z m64 0c22-15 7-36-2-56-11-25-9-48 14-64 14-10 27 12 13 22-19 14-1 38 7 55 10 27 4 49-19 66-13 9-26-13-13-23z"/>
<glyph glyph-name="cups" unicode="&#103;" d="M249 84c0-4-3-7-8-7l-233 0c-4 0-8 3-8 7 0 4 3 7 8 7l234 0c4 0 7-3 7-7z m-199 247c12-11 3-18-2-30-5-12-1-23 9-32 7-7 18 4 11 11-12 11-2 18 2 30 5 12 1 24-9 32-7 7-19-4-11-11z m34 0c12-10 3-17-2-29-4-12 0-24 9-32 7-7 19 4 11 11-12 11-2 18 3 30 5 12 1 23-10 31-7 7-18-4-11-11z m424-245c0-4-3-8-8-8l-233 0c-4 0-8 4-8 8 0 4 3 7 8 7l234 0c4 0 7-3 7-7z m-271 135c-6 5-14 7-21 6-3-1-6-1-8-2-1 5-1 9-2 13-1 4-4 6-8 6-62 0-125 0-188 0 0 0-1 0-2 0-2-1-5-2-6-6-14-66 32-134 102-134 39 0 70 21 88 51 6-2 10-4 16-4 21 0 41 19 41 41 0 11-4 22-12 29z m-133-102c-58 0-96 55-88 109 58 0 117 0 175 0 10-54-28-109-87-109z m105 47c-3 0-4 1-7 2 5 10 8 26 8 38 3 4 4 6 8 6 4 1 7-2 8-2 4-4 8-11 8-18 0-14-12-26-25-26z m291 56c-6 5-14 8-21 7-3-1-5-2-8-3-1 5-1 9-2 14-1 3-4 6-7 6-63 0-126 0-188 0-1 0-2 0-3 0-2-1-5-3-5-6-15-66 30-134 101-134 39 0 71 20 88 51 6-3 11-4 16-4 21 0 41 19 41 41 0 11-5 22-12 28z m-133-100c-58 0-96 54-88 108 59 0 117 0 175 0 10-54-28-108-87-108z m104 46c-2 0-4 1-6 2 5 10 8 25 8 38 2 4 4 6 8 6 4 0 6-2 8-3 4-4 7-10 7-17 1-14-12-26-25-26z m-113 165c12-11 3-18-2-30-5-12-1-23 9-32 7-6 18 4 11 11-12 12-2 19 2 31 5 12 1 23-9 31-7 6-19-5-11-11z m36-1c12-10 4-18-1-30-5-12-1-23 9-32 7-6 18 4 11 12-12 11-3 18 2 30 5 12 1 23-9 31-8 7-19-4-12-11z m-77 2c-3 0-5 0-7-2 0 4-1 8-2 12-1 3-4 5-6 5l-164 0c0 0-1 0-1 0-3 0-4-2-5-5-6-26-2-51 10-71l16 0c-12 17-17 41-14 62l152 0c4-23-2-45-14-62l45 0c11 6 19 17 19 30 0 19-13 34-29 31z m-7-52c-1 0-4 0-5 0 4 10 6 23 7 33 2 3 3 5 7 5 7 1 14-6 14-18-1-10-11-20-23-20z m-124 144c11-9 3-15-1-25-5-11-1-20 8-27 6-6 16 4 9 9-10 10-2 16 2 27 5 10 0 20-8 27-7 4-16-5-10-11z m26 0c10-9 2-15-2-25-4-11 0-20 8-27 7-6 16 4 10 9-10 10-2 16 2 27 4 10 0 20-8 27-8 4-17-5-10-11z m27 0c11-10 3-16-1-26-5-10-1-20 8-27 6-6 16 4 9 9-10 10-2 16 2 27 5 10 0 20-8 27-7 5-16-5-10-10z"/>
<glyph glyph-name="ease-of-use" unicode="&#104;" d="M378 372c-4 14-28 23-58 23-34 0-58-12-59-28l0-72c0-16 25-29 59-29 34 0 59 12 60 29l0 72c0 2-1 3-2 5z m-58-22c-21 0-42 7-46 14l0 2c0 1 0 1 0 1 2 7 24 15 46 15 23 0 46-8 46-16 0-8-24-16-46-16z m46-5c0-8-23-16-46-16-23 0-46 8-46 16l0 3c10-6 27-10 46-10 19 0 36 4 47 10z m0-26c0-8-23-16-46-16-23 0-46 8-46 16l0 7c10-7 27-11 46-11 19 0 36 4 47 11z m-46-41c-23 0-46 8-46 16l0 7c10-7 27-11 46-11 19 0 36 4 47 11l0-7c-1-7-24-16-47-16z m-181-7c-1 0-1 0-1 0-5 1-8 5-7 10 0 0 1 5 5 13-10 28-9 50 3 68 23 33 80 37 103 37 4 0 8-2 8-6 1-3 0-8-4-10 0 0-12-9-12-45 0-16-5-30-16-40-10-9-26-15-46-15-3 0-6 0-10 1-2 0-4 1-5 3-2 2-3 3-3 7 0 2 1 4 4 5 1 2 3 3 6 3 14-1 32 0 43 10 7 6 11 16 11 28 0 21 3 34 8 43-24-2-58-9-73-30-7-10-9-22-7-36 8 13 21 30 40 43 2 1 4 2 7 1 2-1 4-2 5-3 2-4 1-9-3-12-37-24-48-68-48-68-1-4-4-7-8-7z m93-153c-6 0-16 1-32 4-8 2-15 11-24 23-5 6-10 13-17 19-5 3-15 6-26 8-12 2-27 6-43 13-29 11-46 32-56 49-3 3-7 13-15 28-5 12-12 27-16 32-6 12-1 26 9 32 10 5 22 4 32-9 7-11 15-27 19-32 3-7 7-12 8-15 3 0 8 1 11 0 40-8 66-16 76-20 34-16 87-68 91-87l0-1c3-15 5-32-3-40-2-2-4-4-14-4z m-209 196c-1 0-2 0-3 0-4-3-6-7-4-12 3-6 10-20 16-33 6-11 12-24 14-27 10-16 24-34 48-44 16-6 31-9 42-12 14-3 23-5 32-10l1-1c7-6 13-15 19-21 5-7 12-16 15-16 19-4 29-4 32-4 1 3 2 8-2 26-3 12-51 62-82 75-7 3-25 10-73 20-4 1-10-3-11-7-1-5 6-8 11-10 8-2 16-4 24-7 21-5 39-10 47-13l-3-15c-9 3-27 7-48 13-8 2-16 5-24 7-20 6-24 19-21 28 1 3 2 7 5 10-3 6-16 32-27 47-3 4-5 6-8 6z m255-193c-8 0-9 2-11 3-8 8-5 25-2 39l0 1c4 18 57 70 90 86 11 4 36 12 76 22 3 1 8 1 11 0 2 3 5 9 8 15 4 7 12 21 20 32 9 15 23 15 32 10 9-6 14-19 8-31-4-5-11-19-16-32-8-15-12-24-15-28-10-16-27-37-56-48-17-7-31-11-43-14-11-3-21-5-26-9-7-6-12-13-17-19-10-12-16-20-24-22-19-4-29-5-35-5z m-1 16c2 0 10 0 32 5 2 0 10 9 15 16 6 7 12 15 19 21l1 1c8 5 18 8 31 11 11 3 25 7 42 13 25 10 38 27 49 43 2 3 8 15 13 27 7 12 13 26 16 32 3 4 0 8-2 10-3 2-8 1-12-5-11-15-24-41-27-46 3-3 4-5 4-8 3-10 0-23-20-28-8-3-16-5-24-7-21-7-39-12-48-14l-3 15c8 3 27 8 47 14 8 2 16 5 24 7 3 1 12 4 10 10-1 3-6 7-10 6-48-12-67-18-73-22-32-15-79-64-82-75l0-1c-3-17-3-24-2-25z"/>
<glyph glyph-name="gas-station" unicode="&#105;" d="M293 50l-199 0c-19 0-33 16-33 33l0 396c0 18 14 33 33 33l198 0c18 0 33-15 33-33l0-395c0-9-3-17-9-23-6-7-14-11-23-11z m-199 436c-4 0-8-2-8-7l0-396c0-3 3-7 8-7l198 0c2 0 4 1 6 2 0 2 1 3 1 5l0 396c0 3-2 7-7 7z m153-176l-107 0c-16 0-28 12-28 28l0 88c0 16 13 28 28 28l107 0c16 0 28-13 28-28l0-88c0-16-13-28-28-28z m-107 119c-2 0-2-1-2-3l0-88c0-1 0-2 2-2l107 0c1 0 3 1 3 2l0 88c0 2-1 3-3 3z m285-154l3 1 1 0c15 3 25 18 23 34l-12 60c-2 8-6 15-13 19-6 4-13 5-21 5-10 16-20 32-30 49-9 15-31 2-22-13 8-13 16-28 25-41-13-4-22-19-20-34l11-59c2-8 6-15 13-19 5-3 10-5 15-5-3-29 6-52 13-71 6-15 10-27 10-39-1-15-7-28-22-34-19-9-38-2-62 14l0-31c8-7 21-14 41-14 12 0 21 2 32 7 22 10 36 33 37 57 1 17-5 33-11 49-9 19-16 40-11 65z m-29 25l-11 59c0 3 1 4 3 5l22 4c0 0 1 0 1 0 1 0 2 0 3-1 0-1 1-1 1-2l11-59c0-1 0-4-3-4l-22-4c-2 0-3 0-3 0-1 0-2 1-2 2z m-365-300c51 0 101 0 151 0 81 0 162 0 244 0 18 0 36 0 55 0 17 0 17 26 0 26-51 0-101 0-151 0-81 0-162 0-244 0-18 0-36 0-55 0-17 0-17-26 0-26z m94 162c46 0 92 0 138 0 17 0 17 26 0 26-46 0-92 0-138 0-17 0-17-26 0-26z m0 61c46 0 92 0 138 0 17 0 17 26 0 26-46 0-92 0-138 0-17 0-17-26 0-26z"/>
<glyph glyph-name="grocery-shop" unicode="&#106;" d="M508 342l-46 125-412 0-47-125c-5-13-5-28 0-40 6-14 15-24 28-28 5-2 11-3 15-3 8 0 16 3 24 7 8 4 13 8 18 15 9-12 22-20 37-23 2 0 4 0 6 0 14 0 31 4 42 18 8-10 21-17 36-18 2 0 5 0 7 0 17 0 30 6 40 17 10-10 24-17 41-17 0 0 0 0 1 0 15 0 31 8 41 21 3-3 6-6 9-9 10-8 21-12 33-12 2 0 5 0 7 1 14 2 26 10 34 20 4-6 10-11 16-14 7-4 16-7 24-7 4 0 9 1 15 3 13 4 25 13 31 26 3 9 7 24 0 43z m-430 0c0-1 0-2 0-3l-6-22c-2-7-8-14-14-17-6-3-12-4-18-2-6 3-10 7-13 13-2 7-2 15 0 23l40 108 36 0z m81-27c-5-21-29-18-30-18-9 1-16 5-21 13-5 8-6 16-5 25l28 107 36 0z m82-1c-2-7-7-20-29-18-24 2-26 24-24 38l6 108 48 0z m57-18c-20 0-32 13-31 33l0 112 49 0 8-119c-2-17-14-26-26-26z m86 1c-7-1-14 1-20 5-8 7-13 16-14 28l-8 112 39 0 25-116c0-18-11-28-22-29z m100 13c-3-6-9-11-15-12-7-3-13-2-19 1-8 5-14 15-17 27l-26 116 36 0 40-109c4-8 4-16 1-23z m-26-71c0-56 0-113 0-169-136 0-270 0-405 0 0 56 0 113 0 169 0 17-26 17-26 0 0-61 0-121 0-181 0-8 6-13 13-13 143 0 287 0 430 0 8 0 13 5 13 13 0 60 0 121 0 181 1 17-25 17-25 0z m-289-150c9 0 17 8 17 17l0 128c0 10-8 18-17 18l-75 0c-10 0-18-8-18-18l0-128c0-10 8-18 18-18l75 0z m-67 137l59 0 0-112-59 0z m319-93c9 0 17 8 17 17l0 84c0 10-8 18-17 18l-203 0c-10 0-18-8-18-18l0-83c0-9 8-17 18-17l203 0z m-195 93l186 0 0-67-186 0z"/>
<glyph glyph-name="like" unicode="&#107;" d="M453 312c0 0-40 1-68 1 0 24 0 63 0 95 0 18 0 35 0 47 0 32-26 56-61 57-28 1-61-19-64-53-6-70-42-102-78-129-9-7-21-17-32-31-10 13-25 21-43 21l-49 0c-32 0-56-26-56-57l0-172c0-31 24-57 56-57l50 0c19 0 36 10 46 24 8-12 19-23 33-30 48-24 143-27 196-27 17 0 28 0 30 1 31 0 73 32 82 61 15 54 16 178 16 183-1 35-28 66-58 66z m-319-222c0-14-12-25-26-25l-50 0c-15 0-26 12-26 25l0 172c0 15 11 26 26 26l50 0c14 0 26-12 26-26z m332-19c-5-17-36-40-54-40l-1 0c0 0-11-1-29-1-85 0-152 9-182 24-32 16-34 60-34 73l0 129c0 22 24 42 34 50 42 32 83 72 90 151 1 14 17 25 32 25l0 0c16-1 32-9 32-27 0-12 0-29 0-47 0-42 0-90 0-111l0-15 15 0c26 0 81 0 82 0 15 0 28-18 28-36 1-2 1-126-13-175z"/>
<glyph glyph-name="office-chair" unicode="&#108;" d="M470 312c-33 1-54-17-60-49-3-12-3-25-7-36-3-8-9-12-17-12-5 18-21 31-40 31l-74 0 0 18 74 0c12 0 23 5 30 14 6 8 10 19 7 29l-32 177-1 2c-6 16-19 27-36 27l-118 0c-18 0-34-14-37-31l-31-176c-2-11 1-22 8-30 7-9 18-14 30-14l80 0 0-18-80 0c-20 0-36-14-40-31-8 1-14 4-17 13-5 11-5 24-7 36-6 32-28 50-60 48-16 0-16-26 0-25 13 0 26-2 32-15 4-11 4-24 7-35 5-27 19-46 45-48 5-17 21-30 40-30l80 0 0-66c-24-3-44-16-58-38-11-3-20-13-20-26 0-15 12-27 27-27 15 0 27 12 27 27 0 7-3 14-8 19 10 12 22 18 32 20l0-15c-8-5-13-13-13-23 0-15 12-27 27-27 15 0 27 12 27 27 0 10-6 20-15 25l0 13c14-3 26-11 33-21-3-5-5-11-5-16 0-15 12-27 27-27 15 0 27 12 27 27 0 14-11 26-25 27-12 19-32 33-56 37l0 66 74 0c19 0 35 13 39 31 27 2 41 20 46 48 2 11 2 24 7 34 6 14 19 15 32 15 15-1 15 24-1 25z m-315-19c-2 2-2 5-2 9l31 175 0 1c1 6 7 9 11 9l119 0c6 0 10-3 12-9l32-176c1-3 0-6-2-8-2-4-6-5-11-5l-179 0c-4 0-8 1-11 4z m40-271c-3 0-6 3-6 6 0 3 3 6 6 6 3 0 7-3 7-6 0-3-4-6-7-6z m131 0c-3 0-6 3-6 6 0 3 3 6 6 6 4 0 7-3 7-6 0-3-3-6-7-6z m-66 0c-3 0-6 3-6 6 0 3 3 6 6 6 3 0 6-3 6-6 0-3-3-6-6-6z m101 177c0-8-7-15-15-15l-180 0c-8 0-15 7-15 15l0 5c0 8 7 15 15 15l180 0c8 0 15-7 15-15z"/>
<glyph glyph-name="pdf" unicode="&#109;" d="M95 233c6 1 14 1 25 1 12 0 20-2 25-6 5-4 9-11 9-19 0-8-3-15-8-19-7-7-16-9-28-9-2 0-4 0-6 1l0-30-18 0z m19-38c1-1 3-1 6-1 10 0 16 5 16 14 0 8-5 12-15 12-3 0-7-1-8-1 1 0 1-24 1-24z m64 38c7 1 16 1 25 1 16 0 27-3 34-8 9-7 13-16 13-32 0-16-5-26-13-33-9-7-22-11-39-11-9 0-16 1-21 1 1 0 1 82 1 82z m20-68c1-1 4-1 6-1 17 0 28 10 28 29 0 17-10 26-26 26-4 0-7-1-9-1l0-53z m79 69l50 0 0-16-32 0 0-19 30 0 0-15-30 0 0-34-19 0 0 84z m99 276l-214 0c-20 0-36-16-36-35l0-177-71 0c-20 0-36-16-36-36l0-134c0-20 16-36 36-36l71 0 0-58c0-19 16-35 36-35l294 0c20 0 36 16 36 35l0 349z m2-32l84-92-84 0z m-338-350l0 134c0 8 6 15 15 15l316 0c9 0 15-7 15-15l0-134c0-9-6-15-15-15l-225 0c0 0 0 0 0 0l-91 0c-8 0-15 7-15 15z m431-94c0-8-7-15-16-15l-293 0c-9 0-16 7-16 15l0 58 224 0c20 0 36 16 36 36l0 134c0 20-16 36-36 36l-224 0 0 177c0 8 8 15 16 15l196 0 0-124 114-1 0-331z"/>
<glyph glyph-name="people" unicode="&#110;" d="M106 262c-8 11-14 24-15 39 0 7 1 17 4 23l-10-10c-19-20-26-33-25-47 1-24 15-37 31-58l18 18c5 5 13 15-3 35m-16 116c-37 0-68 31-68 68 0 36 31 67 68 67 36 0 67-31 67-67 0-37-31-68-67-68z m0 109c-24 0-42-18-42-41 0-24 18-42 42-42 23 0 41 18 41 42 0 23-18 41-41 41z m-42-487l-24 156-24 22 0 131c0 32 26 57 58 57l64 0c32 0 57-24 57-56l0-130-24-24-25-156z m-22 189l22-20 22-143 38 0 23 142 23 22 0 120c0 17-15 31-32 31l-64 0c-18 0-33-15-33-33 1 1 1-119 1-119z m378 73c-8 11-14 24-15 39 0 7 1 17 4 23l-11-10c-19-20-25-33-24-47 0-24 15-37 31-58l17 18c5 5 13 14-2 35m-18 116c-37 0-68 30-68 67 0 37 31 67 68 67 36 0 67-30 67-67 0-37-31-67-67-67z m0 109c-24 0-42-18-42-41 0-24 18-42 42-42 23 0 41 18 41 42 0 22-18 41-41 41z m-40-487l-14 88-71 0 37 142 0 79c0 32 25 57 57 57l64 0c32 0 58-24 58-56l0-78 36-144-71 0-14-88z m-52 113l60 0 13-88 39 0 13 88 60-1-29 115 0 81c0 18-14 31-32 31l-64 0c-17 0-32-14-32-33l0-81z"/>
<glyph glyph-name="phone" unicode="&#111;" d="M102 1c-8 0-17 2-26 9-1 0-76 54-75 87 2 69 55 157 157 258 101 102 188 155 258 157 0 0 1 0 1 0 33 0 86-74 86-75 15-21 9-45-4-55-8-5-93-61-102-68-11-7-27-6-43 3-8 4-32 17-44 24-11-8-36-27-72-65-38-38-57-62-65-73 7-13 20-35 24-43 8-16 9-32 2-43-7-10-63-95-69-103-5-8-16-13-28-13z m315 481c-77-3-171-82-238-148-66-66-145-161-148-238 3-10 40-46 63-62 6-4 11-3 12-2 4 6 60 91 66 101 0 1 0 6-3 13-6 10-28 50-29 50l-4 8 5 8c1 2 18 30 74 86 56 56 85 74 87 75l8 5 8-4c0 0 40-24 50-29 7-4 12-4 14-3 8 5 93 61 100 66 1 1 2 6-2 12-17 22-53 59-63 62z"/>
<glyph glyph-name="quality" unicode="&#112;" d="M338 362c-40-60-81-118-122-177-22 27-42 54-64 81-10 14-30-6-19-20 25-31 49-63 74-95 7-8 18-3 22 3 45 65 89 129 133 193 11 15-13 29-24 15z m-82 148c-141 0-255-114-255-255 0-141 114-255 255-255 141 0 255 114 255 255 0 141-114 255-255 255z m0-485c-127 0-230 103-230 229 0 128 103 231 230 231 127 0 230-103 230-231 0-126-103-229-230-229z"/>
<glyph glyph-name="recipes" unicode="&#113;" d="M405 450c-11 0-21-3-31-7-24 47-62 69-118 69-59 0-106-27-121-68-9 3-18 6-28 6-46 0-85-40-85-88 0-43 32-79 75-84l13-182c0-1 0-2 0-2l7-84c1-6 5-10 10-10l256 0c6 0 11 4 11 10l6 84c0 0 0 1 0 2 0 0 0 0 0 1l14 181c42 5 75 41 75 85 1 47-37 87-84 87z m-267-426l-4 56 246 0-5-56z m268 274c-6 0-11-5-11-11l-14-183-42 0 11 49c2 5-2 12-8 13-5 2-11-3-12-8l-12-54-49 0 0 98c1 4-4 11-13 11-7 0-12-6-12-12l0-98-52 0-8 54c-1 5-6 10-12 9-6 0-10-8-9-13l8-49-39 0-14 184c-1 6-5 10-11 10-35 0-64 29-64 64 0 39 35 66 65 66 10 0 21-3 29-9 3-2 7-2 10-1 3 1 6 4 7 8 6 39 48 64 103 64 51 0 85-20 105-66 0-3 3-5 6-6 3-1 6 0 9 1 9 6 19 9 29 9 30 0 64-27 64-66 0-35-29-64-64-64z"/>
<glyph glyph-name="screwdriver" unicode="&#114;" d="M385 268l-43 40-34-37-23 23 34 36-41 39c-2 2-1 5 1 7l13 14c2 2 5 2 7 0l5-6c2-2 6-2 7 1l106 111c9 10 21 14 37 12 13-2 26-8 36-18 11-11 18-23 21-36 3-15-1-28-9-38l-105-111c-3-3-3-5 0-7l8-8c2-3 2-5 0-8l-14-14c-2-2-5-2-6 0z m-52 91l37-35c3-2 6-2 8 0l104 110c4 4 4 11 3 14-2 7-7 15-12 21-7 6-15 10-22 11-5 0-11 0-15-3l-104-111c-2-1-2-5 1-7z m-263-355c-4 0-10 2-14 6l-26 24c-4 4-7 10-7 16 0 4 2 10 5 13l37 39c1 2 5 4 26 12 7 2 12 4 17 6 20 21 63 65 63 65l23-22c0 0-51-53-60-63-2-10-2-10-4-22-6-21-8-26-9-28l-37-39c-3-5-8-7-14-7z m-17 46l17-16 30 32c2 4 5 16 6 23-8-3-19-6-23-8z m-37 348c-13 0-15-15-15-19 0-5-1-10-1-15 0-59 48-107 107-107 9 0 18 1 27 3 0 0 1-1 1 0 35-35 206-210 213-218 3-3 19-20 42-20 16 0 29 6 42 20 29 30 13 63-1 76l-221 218c0 1 0 2 0 2 2 9 3 18 3 27 0 59-48 107-107 107-7 0-14-1-20-2-8-2-13-5-16-10-1-3-2-7-1-11 1-3 1-5 10-14l42-39c1-1 1-2 1-2l-10-39c0-1-1-1-1-1l-39-8c-1 0-2 0-2 0l-38 40c-8 8-10 10-14 11 0 1 0 1-2 1z m40-71c6-6 18-10 26-8l38 10c10 2 18 10 19 19l10 38c2 9-1 20-8 26l-31 29c44-1 79-36 79-80 0-7-1-14-3-19-2-10 1-20 8-27l216-212c13-13 8-30 0-39-8-8-16-12-23-12-13 0-22 11-22 11l1 1c0 0-175 178-209 214-5 4-12 8-20 8-3 0-5-1-7-1-6-2-12-3-19-3-41 0-75 32-79 72z m342-241c0-6-5-12-12-12-6 0-12 6-12 12 0 7 6 12 12 12 7 0 12-5 12-12z"/>
<glyph glyph-name="search" unicode="&#115;" d="M502 58l-134 133c24 34 38 74 38 117 0 112-90 202-202 202-112 0-202-90-202-202 0-112 90-202 202-202 43 0 83 14 117 38l133-134c12-12 34-12 48 0 13 14 13 33 0 48z m-299 95c-85 0-155 69-155 155 0 86 69 155 155 155 87 0 155-69 155-155 0-86-69-155-155-155z"/>
<glyph glyph-name="speedometer" unicode="&#116;" d="M213 254c0-21 17-37 37-37 14 0 26 8 32 20l68 121-118-72c-11-6-19-18-19-32z m237-164c38 44 61 103 61 166 0 141-115 256-256 256-1 0-1 0-2 0-1 0-2 0-3 0-138-2-250-115-252-253 0-2 0-5 0-7 3-139 117-252 256-252 75 0 143 33 189 83 3 2 5 4 7 7z m-360 4c10 8 20 16 28 24 6 4 5 13 0 18-4 5-12 5-18 0-10-7-18-15-27-22-28 36-46 80-49 128 11 0 23 0 34 0 17 0 17 25 0 25-11 0-23 0-34 0 3 53 24 101 57 139 9-8 18-16 28-23 5-4 13-5 18 0 5 5 6 14 0 19-9 7-18 15-28 22 37 34 86 57 140 61 0-12 0-23 0-35 0-17 26-17 26 0 0 12 0 24 0 35 55-3 105-24 144-59-9-6-18-12-27-19-5-4-8-11-4-17 3-6 12-9 17-5 11 8 21 15 32 24 34-38 55-87 59-140-12 0-24 0-36 1-16 0-16-26 0-26 12 0 24 0 36-1-3-49-21-95-51-131-11 6-21 12-32 18-14 8-27-13-13-22 10-5 19-10 28-15-42-43-99-68-162-68-66 1-124 27-166 69z"/>
<glyph glyph-name="trash" unicode="&#117;" d="M472 446l-94 0 0 66-240 0 0-66-93 0c-16 0-15-21 0-21l28 0 0-425 370 0 0 425 29 0c16 0 16 21 0 21z m-115 44l0-43-196 0 0 43z m65-468l-327 0 0 403 327 0z m-251 54c-6 0-11 4-11 11l0 272c0 7 4 11 11 11 7 0 11-4 11-11l0-272c0-6-4-11-11-11z m87 0c-6 0-11 4-11 11l0 272c0 7 4 11 11 11 7 0 12-4 12-11l0-272c0-6-4-11-12-11z m88 0c-7 0-12 4-12 11l0 272c0 7 4 11 12 11 6 0 11-4 11-11l0-272c0-6-4-11-11-11z"/>
</font>
</defs>
</svg>
